/* XPM */
static char *logo__[] = {
/* columns rows colors chars-per-pixel */
"48 48 256 2",
"   c #3E3E3E",
".  c #3F3F3F",
"X  c #4E4E4E",
"o  c gray31",
"O  c gray37",
"+  c #5F5F5F",
"@  c #5E5666",
"#  c gray43",
"$  c #6E6676",
"%  c #7E7E7E",
"&  c #7F7E7F",
"*  c #7F7F7F",
"=  c #7E6E8E",
"-  c #7E7686",
";  c #8E8E8E",
":  c #95979A",
">  c #96989A",
",  c #9A9B9C",
"<  c #9D9D9D",
"1  c gray62",
"2  c #9E8EAE",
"3  c #9E86B6",
"4  c gray68",
"5  c gray72",
"6  c gray74",
"7  c gray",
"8  c #BD9DDD",
"9  c #BD9EDD",
"0  c #BE9EDE",
"q  c #BEAECE",
"w  c #CDB5E5",
"e  c #CEB6E6",
"r  c #D6D8DA",
"t  c #DADBDC",
"y  c gray87",
"u  c #DDCDED",
"i  c #DECEEE",
"p  c #ECF0F5",
"a  c #EDF1F6",
"s  c None",
"d  c #F5F7FA",
"f  c #FDFDFD",
"g  c #00000F",
"h  c #04F400",
"j  c #24A61E",
"k  c #2A3616",
"l  c #FFFFFE",
"z  c #1ED05F",
"x  c #1E62FA",
"c  c #3C0582",
"v  c #000007",
"b  c #1603B6",
"n  c black",
"m  c #407F2C",
"M  c #BAABCD",
"N  c black",
"B  c black",
"V  c #407F2C",
"C  c #04F3A8",
"Z  c #04F3C4",
"A  c #250230",
"S  c #1ED05F",
"D  c #04F410",
"F  c #1E6D91",
"G  c #586B30",
"H  c #586C31",
"J  c #08159A",
"K  c #000004",
"L  c #04F6A0",
"P  c #04F68C",
"I  c #588644",
"U  c #08159A",
"Y  c #586B30",
"T  c #586C31",
"R  c #08159A",
"E  c #000004",
"W  c #04F6C0",
"Q  c #04F6AC",
"!  c #588644",
"~  c #08159A",
"^  c #000004",
"/  c #04F6C0",
"(  c black",
")  c #588650",
"_  c #04F60C",
"`  c #24A61E",
"'  c #2A8B26",
"]  c #FFFFFE",
"[  c #1E6D51",
"{  c #1F0D27",
"}  c black",
"|  c #407F2C",
" . c #3C0582",
".. c #000007",
"X. c #1603B6",
"o. c black",
"O. c black",
"+. c black",
"@. c #000007",
"#. c #8361E0",
"$. c #000007",
"%. c black",
"&. c #407F2C",
"*. c black",
"=. c #407F2C",
"-. c #3C0582",
";. c #000007",
":. c #1603B6",
">. c black",
",. c #000001",
"<. c black",
"1. c #A3D620",
"2. c #04F63C",
"3. c #5BEC56",
"4. c #5BEC5E",
"5. c black",
"6. c #8361E0",
"7. c #04F5C4",
"8. c #5C1A20",
"9. c black",
"0. c #8361E0",
"q. c #5BEAF2",
"w. c #8361E0",
"e. c #5B9F3A",
"r. c black",
"t. c #7903A5",
"y. c #3C0582",
"u. c #04F4CC",
"i. c #1ECFEF",
"p. c #619610",
"a. c black",
"s. c #00B029",
"d. c black",
"f. c black",
"g. c #04F4D8",
"h. c #1E6210",
"j. c #250230",
"k. c #00B029",
"l. c #04F514",
"z. c #1ED094",
"x. c #1ED05F",
"c. c #30136A",
"v. c black",
"b. c black",
"n. c #04F518",
"m. c #585758",
"M. c #58596A",
"N. c #01159A",
"B. c #85000F",
"V. c black",
"C. c #01159A",
"Z. c black",
"A. c #000001",
"S. c black",
"D. c #587993",
"F. c #587975",
"G. c #04F534",
"H. c #000100",
"J. c #A2B980",
"K. c #42FC88",
"L. c #04F534",
"P. c #000300",
"I. c #3E3E3E",
"U. c #3F3F3F",
"Y. c #4E4E4E",
"T. c gray31",
"R. c gray37",
"E. c #5F5F5F",
"W. c #66565E",
"Q. c gray43",
"!. c #76666E",
"~. c #7E7E7E",
"^. c #7F7E7F",
"/. c #7F7F7F",
"(. c #8E6E7E",
"). c #86767E",
"_. c #8E8E8E",
"`. c #9A9795",
"'. c #9A9896",
"]. c #9C9B9A",
"[. c #9D9D9D",
"{. c gray62",
"}. c #AE8E9E",
"|. c #B6869E",
" X c gray68",
".X c gray72",
"XX c gray74",
"oX c gray",
"OX c #DD9DBD",
"+X c #DD9EBD",
"@X c #DE9EBE",
"#X c #CEAEBE",
"$X c #E5B5CD",
"%X c #E6B6CE",
"&X c #DAD8D6",
"*X c #DCDBDA",
"=X c gray87",
"-X c #EDCDDD",
";X c #EECEDE",
":X c #F5F0EC",
">X c #F6F1ED",
",X c #FAF7F5",
"<X c #FDFDFD",
"1X c gray100",
"2X c #0F0000",
"3X c #00F404",
"4X c #1EA624",
"5X c #16362A",
"6X c #FEFFFF",
"7X c #5FD01E",
"8X c #FA621E",
"9X c #82053C",
"0X c #070000",
"qX c #B60316",
"wX c black",
"eX c #2C7F40",
"rX c #CDABBA",
"tX c black",
"yX c black",
"uX c #2C7F40",
"iX c #A8F304",
"pX c #C4F304",
"aX c #300225",
"sX c #5FD01E",
"dX c #10F404",
"fX c #916D1E",
"gX c #516D1E",
"hX c #6E1230",
"jX c #070000",
"kX c #2C7F40",
"lX c #3CF604",
"zX c #240000",
"xX c #010000",
"cX c black",
"vX c black",
"bX c #700000",
"nX c gray100",
"mX c gray100",
"MX c #5873A8",
"NX c #58CED9",
"BX c #08159A",
"VX c black",
"CX c #000100",
"ZX c #04F6A8",
"AX c #000002",
"SX c #587993",
"DX c #5873A8",
"FX c #58CED9",
"GX c #08159A",
"HX c black",
"JX c #000100",
"KX c #04F6C8",
"LX c #000002",
"PX c #587993",
"IX c #587975",
"UX c #04F6C4",
/* pixels */
"      . .           1 s s s s s 1 . . . . . 1 s s s s s s s s s s s s s                   s s s ",
"  o O = = = = = =   # 1 1 s s s 1 . + $ = . 1 s s s s s s s s s s 1 1 1   X O = = =       1 s s ",
"  O % 8 0 8 8 8 8       . 1 s s 1 . * 2 8 . 1 s s s s s s s s s s         O % 8 8 8         1 s ",
". = 8 0 i s s u 8 8 8 8 . 1 s s 1 . 0 0 8 . 1 s s s s s s s s <     + % 8 8 8 s s s 8 8 8       ",
". = 0 0 i s s s u 8 8 8 . # 1 s 1 . 0 0 8 . # 1 1 1 1 1 s s s <   O - 2 8 w u s s s 8 8 8   # 1 ",
"  = 8 8 u s s s s 8 8 8 . . . s 1 . 0 0 8 . .           1 s s <   % 2 8 8 u s s s s 8 8 8   1 s ",
"  = 8 8 u s s s s 8 8 8 0 = . s 1 . 0 0 0 0 0 8 8 8 8       s <   8 8 8 8 u s s s s s s s s s s ",
"  = 8 8 u s s s s 8 8 8 0 = . s 1 . 0 0 0 0 e u 8 8 8 = @   s <   8 8 8 8 u s s s s s s s s s s ",
"  = 8 8 u s s s s 8 8 8 0 = . s 1 . 0 0 0 0 i s 8 8 8 8 =   s <   8 8 8 8 u s s s s s s s s s s ",
"  = 8 8 u s s s s 8 8 8 0 = . s 1 . 0 0 0 0 i s s u 8 8 =   s <   8 8 8 8 u s s s s s s s s s s ",
"  = 8 8 u s s s s 8 8 8 = @ . s 1 . 0 0 0 0 i s s u 8 8 =   s <   = 3 8 8 u s s s s u u u 1 s s ",
"  = 8 8 u s s s s 8 8 8 . . . s 1 . 0 0 0 0 i s s u 8 8 =   s <     = 8 8 u s s s s 8 8 8   1 s ",
". = 0 0 u s s u 0 0 0 0 . 1 s s 1 . 0 0 0 0 i s 8 8 8       s s s   = 8 8 u s s s s 8 8 8       ",
". = 0 0 e u u e 0 = = = . 1 s s 1 . 0 0 0 0 e u 8 8 8   # 1 s s s   @ = 8 w u u u u 8 3 =   # 1 ",
". = 8 8 8 8 8 8 8 . . . . 1 s s 1 . 9 9 9 0 0 8 8 8 8   1 s s s s       8 8 8 8 8 8 8 =     1 s ",
". . . . . . . . . . 1 s s s s s 1 . . . . s 1           1 s s s s s s s                   s s s ",
"1 1 1 1 1 1 1 1 1 1 s s s s s s s 1 1 1 1 s s 1 1 1 1 1 s s s s s s s s 1 1 1 1 1 1 1 1 1 s s s ",
"s s s s s s s s s s s s s s s s s s s s s s s s s s s s s s s s s s s s s s s s s s s s s s s s ",
"s s s s s s s s s s s s s s s s s s s s s s s s s s s s <     + % s s s s s s s s s s s s s s s ",
"s s s s s s s s s s s s s s s s s s s s s s s s s s s < % O = $ O 6 s s s s s s s s s s s s s s ",
"s s s s s s s s s s s s s s s s s s s s s s s s s s s . + & 8 = . % 5 s s s s s s s s s s s s s ",
"s s s s s s s s s s s s s s s s s s s s s s s s s <   % 2 8 7 q 8   + % s s s s s s s s s s s s ",
"s s s s s s s s s s s s s s s s s s s s s s s s s <   % 2 8 7 q 8   + % s s s s s s s s s s s s ",
"s s s s s s s s s s s s s s s s s s s s s s s s s <   % 2 8 7 q 8   O % s s s s s s s s s s s s ",
"s s s s s s s s s s s s s s s s s s s s s s s s s s s   = 8 8 =   % 7 s s s s s s s s s s s s s ",
"s s s s s s s s s s s s s s s s s s s s s s s s s s 6 O $ = = $ O 7 s s s s s s s s s s s s s s ",
"s s s s s s s s s s s s s s s s s s s s s s s s s 6 % % O     O % s s s s s s s s s s s s s s s ",
"s s s s s s s s s s s s s s s s s s s s s s s s % O   s s s s s s s s s s s s s s s s s s s s s ",
"s s s s s s s s s s s s s s s s s s s s s s s 6 O % 1 s s s s s s s s s s s s s s s s s s s s s ",
"s s s s s s s s s s s s s s s s s s s s s s 6 %   1 s s s s s s s s s s s s s s s s s s s s s s ",
"s s s s s s s s s s s s s s s s s s s s s % O   s s s s s s s s s s s s s s s s s s s s s s s s ",
"6 4 < < < < < < < < < < < < < < 4 6 s s 5 O % 1 s s s s s s s s s s s s s s s s s s s s s s s s ",
"% O                             O % s 6 %   1 s s s s s s s s s s s s s s s s s s s s s s s s s ",
"  : p p p p p p p p p p p p p a > . % O   s s s s s s s s s s s s s s s s s s s s s s s s s s s ",
"  > a : : : : : : : : : : : : a > . O % 1 s s s s s s s s s s s s s s s s s s s s s s s s s s s ",
"  > a                       . a >     1 s s s s s s s s s s s s s s s s s s s s s s s s s s s s ",
"  > a % % % % % % % % % % % * a > . % 7 s s s s s s s s s s s s s s s s s s s s s s s s s s s s ",
"  > a % % % % % % % % % % % * a > . % 7 s s s s s s s s s s s s s s s s s s s s s s s s s s s s ",
"  > a % % % % % % % % % % % * a > . % 7 s s s s s s s s s s s s s s s s s s s s s s s s s s s s ",
"  > a 8 8 8 8 8 8 8 8 8 8 8 9 a > . % 7 s s s s s s s s s s s s s s s s s s s       % 7 s s s s ",
"  , d 8 8 8 8 8 8 8 8 8 8 8 9 a > . % 7 s s s s s s s s s s s s s s s s s s < O $ = O ; 6 s s s ",
"  1 f 8 8 8 8 8 8 8 8 8 8 8 9 a > . % 7 s s s s s s s s s s s s s s s s s <   % 2 8   O % s s s ",
"  > a 7 7 7 7 7 7 7 7 7 7 7 7 a > . % % % % % % % % % % % % % % % % % %   O % 8 q 7 8 =   % 7 s ",
"  , d y y y r t y y t r y y y d , . O O O O O O O O O O O O O O O O # %   O % 8 q 7 8 =   % 7 s ",
"  1 f f f f a d f f d a f f f f 1                                   O %   O % 8 q 7 8 =   % 7 s ",
"% O                               . % 7 s s s s s s s s s s s s s s s s s <   8 8 8   O % s s s ",
"7 ; O + + O O O O O O O + + + + + + % 7 s s s s s s s s s s s s s s s s s s 1 = = = O ; 7 s s s ",
"s 7 % % % % % % % % % % % % % % % % % 7 s s s s s s s s s s s s s s s s s s s       % 7 s s s s "
};
