/* XPM */
static char *logo__[] = {
/* columns rows colors chars-per-pixel */
"48 48 256 2",
"   c #040264",
".  c #049A34",
"X  c #8482B4",
"o  c #84CE9C",
"O  c #C4C2DC",
"+  c #44428C",
"@  c #C4EAD4",
"#  c #44B66C",
"$  c #DCF2E4",
"%  c #64629C",
"&  c #A4DABC",
"*  c #24227C",
"=  c #A4A2C4",
"-  c #64BE84",
";  c #24AA54",
":  c #F4F2F4",
">  c #94D2AC",
",  c #7472AC",
"<  c #B4B2CC",
"1  c #141274",
"2  c #149E44",
"3  c #D4D2E4",
"4  c #545294",
"5  c #E4E2EC",
"6  c #6CC68C",
"7  c #ECFAF4",
"8  c #54BE7C",
"9  c #343284",
"0  c #9492BC",
"q  c #B4E2C4",
"w  c #9CDAAC",
"e  c #F4FAFC",
"r  c #0C0A6C",
"t  c #4C4A94",
"y  c #54BA7C",
"u  c #E4F2EC",
"i  c #6C6AA4",
"p  c #ACAACC",
"a  c #34AE64",
"s  c #7C7AAC",
"d  c #BCBAD4",
"f  c #1CA64C",
"g  c #DCDAE4",
"h  c #ECEAF4",
"j  c #74C694",
"k  c #049A3C",
"l  c #8C8ABC",
"z  c #8CCEA4",
"x  c #CCCADC",
"c  c #CCEEDC",
"v  c #4CB674",
"b  c #2C2A7C",
"n  c #6CC28C",
"m  c #9CD6B4",
"M  c #1C1A74",
"N  c #5C5A9C",
"B  c #3C3A8C",
"V  c #BCE6CC",
"C  c #F4FEFC",
"Z  c #04026C",
"A  c #444694",
"S  c #6462A4",
"D  c #B4DEC4",
"F  c #64C284",
"G  c #34AE5C",
"H  c #F4F6FC",
"J  c #94D6AC",
"K  c #B4B2D4",
"L  c #14A244",
"P  c #E4E6F4",
"I  c #5CC27C",
"U  c #9C9AC4",
"Y  c #9CDAB4",
"T  c #E4F6EC",
"R  c #ACAED4",
"E  c #7C7AB4",
"W  c #DCDAEC",
"Q  c #74CA94",
"!  c #049E3C",
"~  c #8CD2A4",
"^  c #4CBA74",
"/  c #5C5EA4",
"(  c #8486B4",
")  c #C4C6DC",
"_  c #44468C",
"`  c #CCEAD4",
"'  c #E4F2E4",
"]  c #ACDEBC",
"[  c #24267C",
"{  c #A4A6CC",
"}  c #2CAA54",
"|  c #ECF6F4",
" . c #7476AC",
".. c #141674",
"X. c #D4D6E4",
"o. c #E4E6EC",
"O. c #74C68C",
"+. c #F4FAF4",
"@. c #5CBE7C",
"#. c #343684",
"$. c #9496BC",
"%. c #BCE2C4",
"&. c #FCFAFC",
"*. c #0C0E6C",
"=. c #4C4E94",
"-. c #6C6EAC",
";. c #ACAECC",
":. c #3CB264",
">. c #BCBED4",
",. c #24A64C",
"<. c #ECEEF4",
"1. c #8C8EBC",
"2. c #CCCEE4",
"3. c #D4EEDC",
"4. c #2C2E84",
"5. c #1C1E74",
"6. c #5C5E9C",
"7. c #3C3E8C",
"8. c #C4E6CC",
"9. c None",
"0. c #04066C",
"q. c #6466A4",
"w. c #6CC284",
"e. c #9CD6AC",
"r. c #B4B6D4",
"t. c #1CA244",
"y. c #A4DAB4",
"u. c #ECF6EC",
"i. c #7C7EB4",
"p. c #DCDEEC",
"a. c #7CCA94",
"s. c #0C9E3C",
"d. c #94D2A4",
"f. c #54BA74",
"g. c #5F5F18",
"h. c black",
"j. c #68002F",
"k. c #B40000",
"l. c #670000",
"z. c black",
"x. c #006808",
"c. c #00B4E9",
"v. c #006718",
"b. c black",
"n. c #0000E5",
"m. c #000040",
"M. c #000010",
"N. c #000075",
"B. c #003113",
"V. c #00CEF7",
"C. c #0008D6",
"Z. c #00755F",
"A. c #7C00FE",
"S. c #0101FF",
"D. c #5F00FF",
"F. c blue",
"G. c #000CC4",
"H. c #00E8D0",
"J. c #001808",
"K. c #000075",
"L. c #504F01",
"P. c #0118D1",
"I. c #5F0708",
"U. c #007575",
"Y. c #B80078",
"T. c #05002E",
"R. c #DF00E3",
"E. c #040004",
"W. c #50002D",
"Q. c #0100D0",
"!. c #5F0007",
"~. c #000075",
"^. c #E091C3",
"/. c #1503CE",
"(. c #6703C6",
"). c #00772A",
"_. c #000F00",
"`. c #001F00",
"'. c #5F2D00",
"]. c #007600",
"[. c #50DD00",
"{. c #01E900",
"}. c #5F1800",
"|. c black",
" X c #560C00",
".X c #005100",
"XX c #005000",
"oX c black",
"OX c #000020",
"+X c black",
"@X c black",
"#X c black",
"$X c #500001",
"%X c #010000",
"&X c #5F0000",
"*X c black",
"=X c #02ECE8",
"-X c #00E7E8",
";X c #001818",
":X c #020000",
">X c #B00C00",
",X c #025100",
"<X c #005000",
"1X c black",
"2X c #6FCCCC",
"3X c #00FBFB",
"4X c #001818",
"5X c #6F0000",
"6X c #6CD5E5",
"7X c #007140",
"8X c #000310",
"9X c #007775",
"0X c #0E67EB",
"qX c #003DF7",
"wX c #00CBD9",
"eX c #00005F",
"rX c #B0FEFE",
"tX c #E7FFFF",
"yX c #18FFFF",
"uX c cyan",
"iX c #03912D",
"pX c #0003D0",
"aX c #000307",
"sX c #007775",
"dX c #472658",
"fX c #3F32AA",
"gX c #CB0842",
"hX c #007500",
"jX c #6C3478",
"kX c #00E92E",
"lX c #0018E3",
"zX c #000004",
"xX c #6F3600",
"cX c #003200",
"vX c #000800",
"bX c #007500",
"nX c #9223DD",
"mX c #34CEE9",
"MX c #FF0818",
"NX c #767500",
"BX c #FD0150",
"VX c #F60000",
"CX c #080000",
"ZX c #030000",
"AX c #6C31EF",
"SX c #0000CE",
"DX c #0000C6",
"FX c #00002A",
"GX c #E09150",
"HX c #151B00",
"JX c #670100",
"KX c #003300",
"LX c #002E79",
"PX c #6867DD",
"IX c #E66948",
"UX c #046600",
/* pixels */
"9.9.9.9.9.9.9.9.9.9.9.9.9.9.9.9.9.9.9.9.9.9.9.9.9.9.9.9.9.9.9.9.9.9.9.9.9.9.9.9.9.9.9.9.9.9.9.9.",
"9.9.9.9.9.9.9.9.9.9.9.9.9.9.9.9.9.9.9.9.9.9.9.9.9.9.9.9.9.9.9.9.9.9.9.9.9.9.9.9.9.9.9.9.9.9.9.9.",
"9.9.9.9.9.9.9.9.9.9.9.9.9.9.9.9.9.9.9.9.9.9.9.9.9.9.9.9.9.9.9.9.9.9.9.9.9.9.9.9.9.9.9.9.9.9.9.9.",
"9.9.9.9.9.9.9.9.9.9.9.9.9.9.9.9.9.9.9.9.9.9.9.9.9.9.9.9.9.9.9.9.9.9.9.9.9.9.9.9.9.9.9.9.9.9.9.9.",
"9.9.9.9.9.9.9.9.9.9.9.9.9.9.9.9.9.9.9.9.9.9.9.9.9.9.9.9.9.9.9.9.9.9.9.9.9.9.9.9.9.9.9.9.9.9.9.9.",
"9.9.9.9.9.9.9.9.9.9.9.9.9.9.9.9.9.9.9.9.9.9.9.9.9.9.9.9.9.9.9.9.9.9.9.9.9.9.9.9.9.9.9.9.9.9.9.9.",
"] ] ' 9.9.9.9.9.9.9.` ] ] u.9.9.9.9.9.9.9.9.9.9.9.9.9.9.9.9.D ] D 9.9.9.9.9.9.9.9.9.9.9.9.D ] ] ",
". . J 9.9.9.9.9.9.| s.. L +.9.9.9.9.9.9.9.9.9.9.9.9.9.9.9.9.# . . y.9.9.9.9.9.9.9.9.9.9.] . . a ",
". . w 9.9.9.9.9.9.Q . . J 9.9.9.9.9.9.9.9.9.9.9.9.9.9.9.9.9.3.. . f 9.9.9.9.9.9.9.9.9.C ,.. . @ ",
". . e.9.9.9.9.9.T k . f e 9.9.9.9.9.9.W 1.-.E p <.9.9.9.9.9.9.y . . ~ 9.9.9.9.9.9.9.9.m . . v 9.",
". . w 9.9.9.9.9.F . . e.9.9.9.9.9.X.+           *.X &.9.9.9.9.$ . . L +.9.9.9.9.9.9.+.L . . 3.9.",
". . J 9.9.9.9.' k . f 9.9.9.9.9.R *.  Z         Z   7.<.9.9.9.9.F . . a.9.9.9.9.9.9.~ . . @.9.9.",
". . w 9.9.9.9.@.. . ] 9.9.9.9.>.Z       A S / *       B &.9.9.9.u.k . s.| 9.9.9.9.| s.. ! ' 9.9.",
". . e.9.9.9.3.. . } 9.9.9.9.h M   Z N P 9.9.9.9.r.*     , 9.9.9.9.Q . . w.9.9.9.9.a.. . n 9.9.9.",
". . w 9.9.9.v . . ] 9.9.9.9.-.    i.9.9.9.9.9.9.9.o.*   0.W 9.9.9.| s.. . $ 9.9.T k . s.| 9.9.9.",
". . J 9.9.` . . G 9.9.9.9.<.r   =.9.9.9.9.9.9.9.9.9.W 0.  S 9.9.9.9.o . . y 9.9.n . . o 9.9.9.9.",
". . w 9.&.# . . V 9.9.9.9.0   0.P 9.9.9.9.9.9.9.9.9.9.s   1 H 9.9.9.+.L . . ` $ . . L +.9.9.9.9.",
". . e.9.@ . . a 9.9.9.9.9.t Z N 9.9.9.9.9.9.9.9.9.9.9.P     d 9.9.9.9.d.. . :.f.. . ~ 9.9.9.9.9.",
". . e.9.G . . V 9.9.9.9.&...  p 9.9.9.9.9.9.9.9.9.9.9.9.B   ( 9.9.9.9.e f . . . . f 9.9.9.9.9.9.",
". . J q . . # 9.9.9.9.9.H     W 9.9.9.9.9.9.9.9.9.9.9.9.-.  S 9.9.9.9.9.y.. . . . m 9.9.9.9.9.9.",
". . e.} . . ` 9.9.9.9.9.W     H 9.9.9.9.9.O X H 9.9.9.9.X Z =.9.9.9.9.9.9.; . . G 9.9.9.9.9.9.9.",
". . :.. . . ` 9.9.9.9.9.W   Z <.9.9.9.9.9.4.  ..-.p R l b   t 9.9.9.9.9.9.a . . D 9.9.9.9.9.9.9.",
". . . . . . # 9.9.9.9.9.H     5 9.9.9.9.9.B     Z         Z N 9.9.9.9.9.D . . :.9.9.9.9.9.9.9.9.",
". . . . . . . q 9.9.9.9.9.1   R 9.9.9.9.9.2.4.      Z     r d 9.9.9.9.9.} . . 8.9.9.9.9.9.9.9.9.",
". . . . e.. . G 9.9.9.9.9.A   S 9.9.9.9.9.9.9.;./ #.b t 1.P 9.9.9.9.9.m . . # 9.9.9.9.9.9.9.9.9.",
". . . @.9.^ . . & 9.9.9.9.1.  r h 9.9.9.9.9.9.9.9.9.9.9.9.9.9.9.9.9.9.f . . c 9.9.9.9.9.9.9.9.9.",
". . k $ 9.3.. . ,.9.9.9.9.o.0.  % 9.9.9.9.9.9.9.9.9.9.9.9.9.9.9.9.9.> . . @.9.9.9.9.9.9.9.9.9.9.",
". . F 9.9.9.F . . J 9.9.9.9./   Z U 9.9.9.9.9.9.9.<.E 6.&.9.9.9.9.+.L . . $ 9.9.9.9.9.9.9.9.9.9.",
". . w 9.9.9.$ k . t.e 9.9.9.P *.    E &.9.9.9.e S r     2.9.9.9.9.o . . 6 9.9.9.9.9.9.9.9.9.9.9.",
". . J 9.9.9.9.O.. . o 9.9.9.9.p Z     E 9.9.9.r.Z     Z p.9.9.9.u.s.. s.T 9.9.9.9.9.9.9.9.9.9.9.",
". . w 9.9.9.9.u.k . s.| 9.9.9.9.0   Z =.9.9.9.d     B d 9.9.9.9.6 . . a.9.9.9.9.9.9.9.9.9.9.9.9.",
". . e.9.9.9.9.9.o . . j 9.9.9.9.9.A   E 9.9.9.h   Z W 9.9.9.9.u ! . L 7 9.9.9.9.9.9.9.9.9.9.9.9.",
". . w 9.9.9.9.9.+.L . . T 9.9.9.9.M   p 9.9.9.9.M   p 9.9.9.9.- . . z 9.9.9.9.9.9.9.9.9.9.9.9.9.",
". . J 9.9.9.9.9.9.~ . . - 9.9.9.h   Z X.9.9.9.9.t   E 9.9.9.3.. . f 9.9.9.9.9.9.9.9.9.9.9.9.9.9.",
". . w 9.9.9.9.9.9.&.f . . 3.9.9.>.Z r &.9.9.9.9. .  t 9.9.9.f.. . m 9.9.9.9.9.9.9.9.9.9.9.9.9.9.",
". . e.9.9.9.9.9.9.9.Y . . - 9.9.1.  #.9.9.9.9.9.p   M 9.9.' . . ; 9.9.9.9.9.9.9.9.9.9.9.9.9.9.9.",
". . w 9.9.9.9.9.9.9.9.} . o 9.9.6.Z q.9.9.9.9.9.W Z   h 9.C ! . ] 9.9.9.9.9.9.9.9.9.9.9.9.9.9.9.",
". . J 9.9.9.9.9.9.9.9.] . q 9.9.4.  0 9.9.9.9.9.&.r   r.9.9.G G 9.9.9.9.9.9.9.9.9.9.9.9.9.9.9.9.",
". . w 9.9.9.9.9.9.9.9.9.a u.9.e 0.  O 9.9.9.9.9.9.B   l 9.9.- 8.9.9.9.9.9.9.9.9.9.9.9.9.9.9.9.9.",
"Y y.$ 9.9.9.9.9.9.9.9.9.$ 9.9.3   Z : 9.9.9.9.9.9.i   N 9.9.3.9.9.9.9.9.9.9.9.9.9.9.9.9.9.9.9.9.",
"9.9.9.9.9.9.9.9.9.9.9.9.9.9.9.U Z * 9.9.9.9.9.9.9.U Z [ 9.9.9.9.9.9.9.9.9.9.9.9.9.9.9.9.9.9.9.9.",
"9.9.9.9.9.9.9.9.9.9.9.9.9.9.9.,   4 9.9.9.9.9.9.9.)   0.H 9.9.9.9.9.9.9.9.9.9.9.9.9.9.9.9.9.9.9.",
"9.9.9.9.9.9.9.9.9.9.9.9.9.9.9.+   ( 9.9.9.9.9.9.9.H Z   ) 9.9.9.9.9.9.9.9.9.9.9.9.9.9.9.9.9.9.9.",
"9.9.9.9.9.9.9.9.9.9.9.9.9.9.9.1   R 9.9.9.9.9.9.9.9.4.  U 9.9.9.9.9.9.9.9.9.9.9.9.9.9.9.9.9.9.9.",
"9.9.9.9.9.9.9.9.9.9.9.9.9.9.5   Z 2.<.<.<.<.<.<.<.<.=.  i 9.9.9.9.9.9.9.9.9.9.9.9.9.9.9.9.9.9.9.",
"9.9.9.9.9.9.9.9.9.9.9.9.9.9.K                         Z B 9.9.9.9.9.9.9.9.9.9.9.9.9.9.9.9.9.9.9.",
"9.9.9.9.9.9.9.9.9.9.9.9.9.9.0   Z   Z   Z   Z   Z   Z   1 9.9.9.9.9.9.9.9.9.9.9.9.9.9.9.9.9.9.9.",
"9.9.9.9.9.9.9.9.9.9.9.9.9.9.3 *.                        t 9.9.9.9.9.9.9.9.9.9.9.9.9.9.9.9.9.9.9."
};
